<svg xmlns="http://www.w3.org/2000/svg" viewBox="0 0 24 24">
  <path fill="#539E43" d="M12 0C5.373 0 0 5.373 0 12c0 6.627 5.373 12 12 12s12-5.373 12-12c0-6.627-5.373-12-12-12zm5.917 15.125c-.077.075-.158.15-.238.225-.158.15-.317.3-.475.45-.317.3-.633.6-.95.9-.317.3-.633.6-.95.9-.317.3-.633.6-.95.9-.317.3-.633.6-.95.9-.317.3-.633.6-.95.9-.317.3-.633.6-.95.9-.317.3-.633.6-.95.9-.317.3-.633.6-.95.9h-1.2v-4.8h-2.4v6h4.8c.4 0 .8-.2 1.1-.5l7.9-7.9c.3-.3.5-.7.5-1.1s-.2-.8-.5-1.1l-1.4-1.4c-.3-.3-.7-.5-1.1-.5s-.8.2-1.1.5l-5.5 5.5v-8.8c0-.4-.2-.8-.5-1.1l-1.4-1.4c-.3-.3-.7-.5-1.1-.5s-.8.2-1.1.5l-5.5 5.5v-2.4h-2.4v12h2.4v-7.2l4.8-4.8v9.6l-3.6 3.6h-1.2v-4.8h-2.4v6h4.8c.4 0 .8-.2 1.1-.5l7.9-7.9c.3-.3.5-.7.5-1.1s-.2-.8-.5-1.1l-1.4-1.4c-.3-.3-.7-.5-1.1-.5s-.8.2-1.1.5l-5.5 5.5v-8.8c0-.4-.2-.8-.5-1.1l-1.4-1.4c-.3-.3-.7-.5-1.1-.5s-.8.2-1.1.5l-5.5 5.5v-2.4h-2.4v12h2.4v-7.2l4.8-4.8v9.6l-3.6 3.6z"/>
</svg> 