<svg width="512" height="512" viewBox="0 0 512 512" fill="none" xmlns="http://www.w3.org/2000/svg">
  <!-- 背景圆形 -->
  <circle cx="256" cy="256" r="256" fill="#42B983"/>
  
  <!-- 云朵形状 -->
  <path d="M346 206.5C346 179.6 324.4 158 297.5 158C282.9 158 269.8 164.5 261 174.8C252.2 164.5 239.1 158 224.5 158C197.6 158 176 179.6 176 206.5C176 233.4 197.6 255 224.5 255H297.5C324.4 255 346 233.4 346 206.5Z" fill="white"/>
  
  <!-- 书本形状 -->
  <path d="M346 286V366C346 377 337 386 326 386H196C185 386 176 377 176 366V286C176 275 185 266 196 266H326C337 266 346 275 346 286ZM196 356H326V296H196V356Z" fill="white"/>
  
  <!-- 书页纹理 -->
  <path d="M206 316H316M206 336H316" stroke="#42B983" stroke-width="10" stroke-linecap="round"/>
</svg> 